# xmcd
#
# Track frame offsets:
#	150
#	15375
#	31087
#	45167
#	63889
#	81162
#	96975
#	111354
#	124872
#	139485
#	156522
#	168462
#
# Disc length: 2570 seconds
#
# Revision: 5
# Processed by: cddbd v1.5.2PL0 Copyright (c) Steve Scherf et al.
# Submitted via: EasyCDDAExtractor 15.3.0.1
#
DISCID=990a080c
DTITLE=Ana Gabriel - Ayer Y Hoy
DYEAR=1994
DGENRE=Latin
TTITLE0=Mirales, Escuchales
TTITLE1=Que Manera De Perder
TTITLE2=Dos Locos De Amor
TTITLE3=Como Agua Para Chocolate
TTITLE4=Tu Lo Decidiste
TTITLE5=El Ultimo Adios
TTITLE6=Parece Que Fue Ayer
TTITLE7=Vamonos
TTITLE8=No Tengo Dinero
TTITLE9=De Aqui Para Alla
TTITLE10=Silverio Perez
TTITLE11=Mexico Lindo Y Querido, Cielito Lindo
EXTD=YEAR: 1994  ID3G:  80
EXTT0=
EXTT1=
EXTT2=
EXTT3=
EXTT4=
EXTT5=
EXTT6=
EXTT7=
EXTT8=
EXTT9=
EXTT10=
EXTT11=
PLAYORDER=
